<svg width="960" height="960" viewBox="0 0 960 960" fill="none" xmlns="http://www.w3.org/2000/svg">
  <defs>
    <linearGradient id="bg" x1="140" y1="100" x2="820" y2="860" gradientUnits="userSpaceOnUse">
      <stop stop-color="#2E0A18"/>
      <stop offset="0.58" stop-color="#63142C"/>
      <stop offset="1" stop-color="#B02B3F"/>
    </linearGradient>
    <linearGradient id="panel" x1="164" y1="186" x2="750" y2="740" gradientUnits="userSpaceOnUse">
      <stop stop-color="rgba(255,255,255,0.18)"/>
      <stop offset="1" stop-color="rgba(255,255,255,0.05)"/>
    </linearGradient>
  </defs>
  <rect width="960" height="960" rx="72" fill="url(#bg)"/>
  <circle cx="790" cy="156" r="112" fill="#F7C6D0" fill-opacity="0.12"/>
  <circle cx="174" cy="788" r="148" fill="#F4D9A6" fill-opacity="0.1"/>
  <rect x="116" y="122" width="728" height="716" rx="46" fill="#FFF8F4" fill-opacity="0.08" stroke="#F3DCC4" stroke-opacity="0.2" stroke-width="2"/>
  <rect x="176" y="214" width="610" height="366" rx="32" fill="#FFF7F2" fill-opacity="0.1" stroke="#FCE8DC" stroke-opacity="0.32" stroke-width="2"/>
  <path d="M482 286C536.1 286 580 329.9 580 384V422C580 515.9 656.1 592 750 592H790V648H750C625.2 648 524 546.8 524 422V384C524 360.8 505.2 342 482 342C458.8 342 440 360.8 440 384V422C440 546.8 338.8 648 214 648H174V592H214C307.9 592 384 515.9 384 422V384C384 329.9 427.9 286 482 286Z" fill="#F7D8C1"/>
  <rect x="248" y="688" width="464" height="82" rx="24" fill="#16060D" fill-opacity="0.42" stroke="#F7E0C8" stroke-opacity="0.16"/>
  <text x="288" y="734" fill="#FFF7F1" font-size="32" font-family="Arial, sans-serif" font-weight="700">Preservativos y proteccion</text>
  <text x="288" y="772" fill="#F6DAC8" font-size="22" font-family="Arial, sans-serif">Sensacion, cuidado y variedad</text>
</svg>
